<?xml version="1.0" encoding="UTF-8" standalone="no"?>
<svg
   xmlns:dc="http://purl.org/dc/elements/1.1/"
   xmlns:cc="http://creativecommons.org/ns#"
   xmlns:rdf="http://www.w3.org/1999/02/22-rdf-syntax-ns#"
   xmlns:svg="http://www.w3.org/2000/svg"
   xmlns="http://www.w3.org/2000/svg"
   xmlns:sodipodi="http://sodipodi.sourceforge.net/DTD/sodipodi-0.dtd"
   xmlns:inkscape="http://www.inkscape.org/namespaces/inkscape"
   version="1.1"
   id="Layer_1"
   x="0px"
   y="0px"
   viewBox="0 0 49.283452 49.416035"
   xml:space="preserve"
   sodipodi:docname="icon.svg"
   inkscape:version="1.0.2 (e86c870879, 2021-01-15)"
   width="49.283451"
   height="49.416035"
   inkscape:export-filename="/home/adfaure/Projects/melomelon/src/images/icon48.png"
   inkscape:export-xdpi="87.879997"
   inkscape:export-ydpi="87.879997"><metadata
   id="metadata87"><rdf:RDF><cc:Work
       rdf:about=""><dc:format>image/svg+xml</dc:format><dc:type
         rdf:resource="http://purl.org/dc/dcmitype/StillImage" /><dc:title></dc:title></cc:Work></rdf:RDF></metadata><defs
   id="defs85"><marker
     style="overflow:visible"
     id="Arrow1Lstart"
     refX="0"
     refY="0"
     orient="auto"
     inkscape:stockid="Arrow1Lstart"
     inkscape:isstock="true"><path
       transform="matrix(0.8,0,0,0.8,10,0)"
       style="fill:#000000;fill-opacity:1;fill-rule:evenodd;stroke:#000000;stroke-width:1pt;stroke-opacity:1"
       d="M 0,0 5,-5 -12.5,0 5,5 Z"
       id="path1086" /></marker><clipPath
     clipPathUnits="userSpaceOnUse"
     id="clipPath1080"><rect
       style="fill:#f4ffff;fill-opacity:1;stroke:none;stroke-width:1.00823"
       id="rect1082"
       width="42.580284"
       height="60.723484"
       x="-10.521615"
       y="-56.405159"
       transform="matrix(0.81197068,0.58369822,-0.72006163,0.69391012,0,0)" /></clipPath></defs><sodipodi:namedview
   pagecolor="#ffffff"
   bordercolor="#666666"
   borderopacity="1"
   objecttolerance="10"
   gridtolerance="10"
   guidetolerance="10"
   inkscape:pageopacity="0"
   inkscape:pageshadow="2"
   inkscape:window-width="1920"
   inkscape:window-height="1080"
   id="namedview83"
   showgrid="false"
   inkscape:snap-global="true"
   inkscape:zoom="5.6568542"
   inkscape:cx="19.280292"
   inkscape:cy="40.547833"
   inkscape:window-x="1920"
   inkscape:window-y="0"
   inkscape:window-maximized="0"
   inkscape:current-layer="Layer_1"
   fit-margin-top="0"
   fit-margin-left="0"
   fit-margin-right="0"
   fit-margin-bottom="0"
   inkscape:document-rotation="0" />






















<g
   id="g52"
   transform="translate(-194.99799,336.51524)">
</g>
<g
   id="g54"
   transform="translate(-194.99799,336.51524)">
</g>
<g
   id="g56"
   transform="translate(-194.99799,336.51524)">
</g>
<g
   id="g58"
   transform="translate(-194.99799,336.51524)">
</g>
<g
   id="g60"
   transform="translate(-194.99799,336.51524)">
</g>
<g
   id="g62"
   transform="translate(-194.99799,336.51524)">
</g>
<g
   id="g64"
   transform="translate(-194.99799,336.51524)">
</g>
<g
   id="g66"
   transform="translate(-194.99799,336.51524)">
</g>
<g
   id="g68"
   transform="translate(-194.99799,336.51524)">
</g>
<g
   id="g70"
   transform="translate(-194.99799,336.51524)">
</g>
<g
   id="g72"
   transform="translate(-194.99799,336.51524)">
</g>
<g
   id="g74"
   transform="translate(-194.99799,336.51524)">
</g>
<g
   id="g76"
   transform="translate(-194.99799,336.51524)">
</g>
<g
   id="g78"
   transform="translate(-194.99799,336.51524)">
</g>
<g
   id="g80"
   transform="translate(-194.99799,336.51524)">
</g>
<g
   id="g1031"
   transform="translate(-19.357243,73.437088)"><g
     id="g979"
     transform="matrix(1.0222686,0,0,1.0180528,-21.309009,-4.0286024)"
     style="stroke-width:0.98024"><path
       style="opacity:0.997;fill:#6441a5;fill-opacity:1;stroke-width:0.98024"
       d="m 63.630057,-51.848907 c -4.188368,0 -7.597952,3.424832 -7.597952,7.633983 0,4.209152 3.409584,7.633984 7.597952,7.633984 4.190202,0 7.597952,-3.424832 7.597952,-7.633984 0,-4.209151 -3.40775,-7.633983 -7.597952,-7.633983 z m 0,11.239458 c -1.981357,0 -3.586623,-1.6138 -3.586623,-3.605475 0,-1.990752 1.605266,-3.605474 3.586623,-3.605474 1.981356,0 3.588456,1.6138 3.588456,3.605474 0,1.991675 -1.6071,3.605475 -3.588456,3.605475 z"
       id="path2-6" /><path
       style="opacity:0.997;mix-blend-mode:normal;fill:#6441a5;fill-opacity:1;stroke-width:0.98024"
       d="m 63.63006,-68.177687 c -13.171435,0 -23.849662,10.728867 -23.849662,23.962764 0,13.233897 10.678227,23.962764 23.849662,23.962764 13.171436,0 23.849656,-10.728867 23.849656,-23.962764 0,-13.233897 -10.67822,-23.962764 -23.849656,-23.962764 z m 0,34.990243 c -6.050476,0 -10.975431,-4.946467 -10.975431,-11.027479 0,-6.081012 4.924955,-11.027481 10.975431,-11.027481 6.052306,0 10.975426,4.946469 10.975426,11.02748 -9.1e-4,6.080091 -4.92403,11.027479 -10.975426,11.02748 z"
       id="path4-3" /><ellipse
       style="opacity:0.997;mix-blend-mode:normal;fill:none;fill-opacity:1;stroke:#fdffff;stroke-width:0.393075;stroke-miterlimit:4;stroke-dasharray:none;stroke-opacity:1"
       id="path1061"
       cx="63.630058"
       cy="-44.214924"
       rx="19.522182"
       ry="18.849134" /><path
       style="opacity:1;fill:#6441a5;fill-opacity:1;stroke-width:0.98024"
       d="m 63.630057,-51.848907 c -4.188368,0 -7.597952,3.424832 -7.597952,7.633983 0,4.209152 3.409584,7.633984 7.597952,7.633984 4.190202,0 7.597952,-3.424832 7.597952,-7.633984 0,-4.209151 -3.40775,-7.633983 -7.597952,-7.633983 z m 0,11.239458 c -1.981357,0 -3.586623,-1.6138 -3.586623,-3.605475 0,-1.990752 1.605266,-3.605474 3.586623,-3.605474 1.981356,0 3.588456,1.6138 3.588456,3.605474 0,1.991675 -1.6071,3.605475 -3.588456,3.605475 z"
       id="path967" /><path
       style="opacity:1;fill:#6441a5;fill-opacity:1;stroke-width:0.98024"
       d="m 63.63006,-68.177687 c -13.171435,0 -23.849662,10.728867 -23.849662,23.962764 0,13.233897 10.678227,23.962764 23.849662,23.962764 13.171436,0 23.849656,-10.728867 23.849656,-23.962764 0,-13.233897 -10.67822,-23.962764 -23.849656,-23.962764 z m 0,34.990243 c -6.050476,0 -10.975431,-4.946467 -10.975431,-11.027479 0,-6.081012 4.924955,-11.027481 10.975431,-11.027481 6.052306,0 10.975426,4.946469 10.975426,11.02748 -9.1e-4,6.080091 -4.92403,11.027479 -10.975426,11.02748 z"
       id="path969" /><ellipse
       style="opacity:1;fill:none;fill-opacity:1;stroke:#fdffff;stroke-width:0.393075;stroke-miterlimit:4;stroke-dasharray:none;stroke-opacity:1"
       id="ellipse971"
       cx="63.630058"
       cy="-44.214924"
       rx="19.522182"
       ry="18.849134" /></g><g
     id="g1442"
     transform="matrix(0.86593505,0,0,0.85814933,0.22849568,-41.770811)"
     style="stroke-width:1.16005"><g
       id="g1056"
       transform="rotate(180,47.195917,-3.3572664)"
       clip-path="url(#clipPath1080)"
       style="stroke-width:1.16005"><g
         id="g1019"
         transform="translate(22.868256,8.7918243)"
         style="stroke-width:1.16005"><ellipse
           style="fill:#b1cc33;fill-opacity:1;stroke:#000000;stroke-width:1.16005"
           id="path974-6-3"
           cx="21.166832"
           cy="-7.4966583"
           rx="28.067074"
           ry="28.11344" /><ellipse
           style="fill:#f4aa41;fill-opacity:1;stroke:#000000;stroke-width:1.16005"
           id="path974-6"
           cx="21.166832"
           cy="-7.4966583"
           rx="23.814146"
           ry="23.853609" /><ellipse
           style="fill:#e27022;fill-opacity:1;stroke:#000000;stroke-width:1.16005"
           id="path974"
           cx="21.166832"
           cy="-7.4966583"
           rx="10.826463"
           ry="10.844847" /></g></g><path
       style="fill:none;stroke:#000000;stroke-width:1.16004px;stroke-linecap:round;stroke-linejoin:round;stroke-opacity:1"
       d="M 30.259022,11.687292 70.619088,-27.582203"
       id="path1084" /><path
       fill="none"
       stroke="#000000"
       stroke-linecap="round"
       stroke-linejoin="round"
       stroke-width="2.251"
       d="m 45.150179,8.7414435 c 3.0092,1.2745615 9.598841,2.1409985 14.768652,-1.009068 3.726583,-2.2738569 6.77772,-7.85980446 7.378337,-11.4939056"
       id="path15"
       style="stroke-width:1.27721;stroke-miterlimit:4;stroke-dasharray:none"
       sodipodi:nodetypes="ccc" /><ellipse
       cx="67.336098"
       cy="-10.174467"
       id="circle17"
       style="stroke-width:1.27721;stroke-miterlimit:4;stroke-dasharray:none"
       rx="1.124596"
       ry="1.0852864" /></g></g></svg>
