<?xml version="1.0" encoding="UTF-8" standalone="no"?>
<svg
   xmlns:dc="http://purl.org/dc/elements/1.1/"
   xmlns:cc="http://creativecommons.org/ns#"
   xmlns:rdf="http://www.w3.org/1999/02/22-rdf-syntax-ns#"
   xmlns:svg="http://www.w3.org/2000/svg"
   xmlns="http://www.w3.org/2000/svg"
   xmlns:sodipodi="http://sodipodi.sourceforge.net/DTD/sodipodi-0.dtd"
   xmlns:inkscape="http://www.inkscape.org/namespaces/inkscape"
   version="1.1"
   id="Layer_1"
   x="0px"
   y="0px"
   viewBox="0 0 52.433232 52.565762"
   xml:space="preserve"
   sodipodi:docname="icon.svg"
   inkscape:version="1.0.2 (e86c870879, 2021-01-15)"
   width="52.433231"
   height="52.565762"
   inkscape:export-filename="/home/adfaure/Projects/melomelon/src/images/icon48.png"
   inkscape:export-xdpi="87.879997"
   inkscape:export-ydpi="87.879997"><metadata
   id="metadata87"><rdf:RDF><cc:Work
       rdf:about=""><dc:format>image/svg+xml</dc:format><dc:type
         rdf:resource="http://purl.org/dc/dcmitype/StillImage" /><dc:title></dc:title></cc:Work></rdf:RDF></metadata><defs
   id="defs85"><marker
     style="overflow:visible"
     id="Arrow1Lstart"
     refX="0"
     refY="0"
     orient="auto"
     inkscape:stockid="Arrow1Lstart"
     inkscape:isstock="true"><path
       transform="matrix(0.8,0,0,0.8,10,0)"
       style="fill:#000000;fill-opacity:1;fill-rule:evenodd;stroke:#000000;stroke-width:1pt;stroke-opacity:1"
       d="M 0,0 5,-5 -12.5,0 5,5 Z"
       id="path1086" /></marker><clipPath
     clipPathUnits="userSpaceOnUse"
     id="clipPath1080"><rect
       style="fill:#f4ffff;fill-opacity:1;stroke:none;stroke-width:1.00823"
       id="rect1082"
       width="42.580284"
       height="60.723484"
       x="-10.521615"
       y="-56.405159"
       transform="matrix(0.81197068,0.58369822,-0.72006163,0.69391012,0,0)" /></clipPath></defs><sodipodi:namedview
   pagecolor="#ffffff"
   bordercolor="#666666"
   borderopacity="1"
   objecttolerance="10"
   gridtolerance="10"
   guidetolerance="10"
   inkscape:pageopacity="0"
   inkscape:pageshadow="2"
   inkscape:window-width="2560"
   inkscape:window-height="1440"
   id="namedview83"
   showgrid="false"
   inkscape:snap-global="true"
   inkscape:zoom="4"
   inkscape:cx="-60.220347"
   inkscape:cy="-43.272637"
   inkscape:window-x="1920"
   inkscape:window-y="0"
   inkscape:window-maximized="0"
   inkscape:current-layer="Layer_1"
   fit-margin-top="0"
   fit-margin-left="0"
   fit-margin-right="0"
   fit-margin-bottom="0"
   inkscape:document-rotation="0" />






















<g
   id="g52"
   transform="translate(-175.64075,263.07815)">
</g>
<g
   id="g54"
   transform="translate(-175.64075,263.07815)">
</g>
<g
   id="g56"
   transform="translate(-175.64075,263.07815)">
</g>
<g
   id="g58"
   transform="translate(-175.64075,263.07815)">
</g>
<g
   id="g60"
   transform="translate(-175.64075,263.07815)">
</g>
<g
   id="g62"
   transform="translate(-175.64075,263.07815)">
</g>
<g
   id="g64"
   transform="translate(-175.64075,263.07815)">
</g>
<g
   id="g66"
   transform="translate(-175.64075,263.07815)">
</g>
<g
   id="g68"
   transform="translate(-175.64075,263.07815)">
</g>
<g
   id="g70"
   transform="translate(-175.64075,263.07815)">
</g>
<g
   id="g72"
   transform="translate(-175.64075,263.07815)">
</g>
<g
   id="g74"
   transform="translate(-175.64075,263.07815)">
</g>
<g
   id="g76"
   transform="translate(-175.64075,263.07815)">
</g>
<g
   id="g78"
   transform="translate(-175.64075,263.07815)">
</g>
<g
   id="g80"
   transform="translate(-175.64075,263.07815)">
</g>
<g
   id="g1459"
   transform="translate(-26.490588,31.96202)"><g
     id="g941"
     transform="matrix(1.0682321,0,0,1.0682321,29.527645,-31.400766)"
     style="stroke-width:0.936126"><g
       id="g8"
       transform="matrix(0.85870353,0,0,0.86277577,-2.8430685,-0.52540431)"
       style="fill:#000000;fill-opacity:1;stroke-width:1.08759"><g
         id="g6"
         style="fill:#000000;fill-opacity:1;stroke-width:1.08759"><path
           style="fill:#000000;fill-opacity:1;stroke-width:1.08759"
           d="m 26,17.716 c -4.566,0 -8.283,3.716 -8.283,8.283 0,4.567 3.717,8.283 8.283,8.283 4.568,0 8.283,-3.716 8.283,-8.283 0,-4.567 -3.715,-8.283 -8.283,-8.283 z m 0,12.195 c -2.16,0 -3.91,-1.751 -3.91,-3.912 0,-2.16 1.75,-3.912 3.91,-3.912 2.16,0 3.912,1.751 3.912,3.912 0,2.161 -1.752,3.912 -3.912,3.912 z"
           id="path2-6" /><path
           style="fill:#000000;fill-opacity:1;stroke-width:1.08759"
           d="M 26,0 C 11.641,0 0,11.641 0,26 0,40.359 11.641,52 26,52 40.359,52 52,40.359 52,26 52,11.641 40.359,0 26,0 Z m 0,37.965 C 19.404,37.965 14.035,32.598 14.035,26 14.035,19.402 19.404,14.035 26,14.035 32.598,14.035 37.965,19.402 37.965,26 37.964,32.597 32.597,37.965 26,37.965 Z"
           id="path4-3" /></g></g><ellipse
       style="fill:none;fill-opacity:1;stroke:#fdffff;stroke-width:0.375386;stroke-miterlimit:4;stroke-dasharray:none;stroke-opacity:1"
       id="path1061"
       cx="19.483223"
       cy="21.906773"
       rx="18.275225"
       ry="17.645168" /></g><g
     id="g1442"><g
       id="g1056"
       transform="rotate(180,47.195917,-3.3572664)"
       clip-path="url(#clipPath1080)"><g
         id="g1019"
         transform="translate(22.868256,8.7918243)"><ellipse
           style="fill:#b1cc33;fill-opacity:1;stroke:#000000;stroke-width:1"
           id="path974-6-3"
           cx="21.166832"
           cy="-7.4966583"
           rx="28.067074"
           ry="28.11344" /><ellipse
           style="fill:#f4aa41;fill-opacity:1;stroke:#000000;stroke-width:1"
           id="path974-6"
           cx="21.166832"
           cy="-7.4966583"
           rx="23.814146"
           ry="23.853609" /><ellipse
           style="fill:#e27022;fill-opacity:1;stroke:#000000;stroke-width:1"
           id="path974"
           cx="21.166832"
           cy="-7.4966583"
           rx="10.826463"
           ry="10.844847" /></g></g><path
       style="fill:none;stroke:#000000;stroke-width:0.999999px;stroke-linecap:round;stroke-linejoin:round;stroke-opacity:1"
       d="M 30.259022,11.687292 70.619088,-27.582203"
       id="path1084" /><path
       fill="none"
       stroke="#000000"
       stroke-linecap="round"
       stroke-linejoin="round"
       stroke-width="2.251"
       d="m 45.150179,8.7414435 c 3.0092,1.2745615 9.598841,2.1409985 14.768652,-1.009068 3.726583,-2.2738569 6.77772,-7.85980446 7.378337,-11.4939056"
       id="path15"
       style="stroke-width:1.10099;stroke-miterlimit:4;stroke-dasharray:none"
       sodipodi:nodetypes="ccc" /><ellipse
       cx="67.336098"
       cy="-10.174467"
       id="circle17"
       style="stroke-width:1.10099;stroke-miterlimit:4;stroke-dasharray:none"
       rx="1.124596"
       ry="1.0852864" /></g></g></svg>
