<?xml version="1.0" encoding="UTF-8" standalone="no"?>
<svg
   xmlns:dc="http://purl.org/dc/elements/1.1/"
   xmlns:cc="http://creativecommons.org/ns#"
   xmlns:rdf="http://www.w3.org/1999/02/22-rdf-syntax-ns#"
   xmlns:svg="http://www.w3.org/2000/svg"
   xmlns="http://www.w3.org/2000/svg"
   xmlns:sodipodi="http://sodipodi.sourceforge.net/DTD/sodipodi-0.dtd"
   xmlns:inkscape="http://www.inkscape.org/namespaces/inkscape"
   version="1.1"
   id="Layer_1"
   x="0px"
   y="0px"
   viewBox="0 0 50.080723 49.973694"
   xml:space="preserve"
   sodipodi:docname="melon-svgrepo-com.svg"
   inkscape:version="1.0.2 (e86c870879, 2021-01-15)"
   width="50.080723"
   height="49.973694"><metadata
   id="metadata87"><rdf:RDF><cc:Work
       rdf:about=""><dc:format>image/svg+xml</dc:format><dc:type
         rdf:resource="http://purl.org/dc/dcmitype/StillImage" /><dc:title></dc:title></cc:Work></rdf:RDF></metadata><defs
   id="defs85" /><sodipodi:namedview
   pagecolor="#ffffff"
   bordercolor="#666666"
   borderopacity="1"
   objecttolerance="10"
   gridtolerance="10"
   guidetolerance="10"
   inkscape:pageopacity="0"
   inkscape:pageshadow="2"
   inkscape:window-width="2556"
   inkscape:window-height="1396"
   id="namedview83"
   showgrid="false"
   inkscape:snap-global="false"
   inkscape:zoom="8.6689753"
   inkscape:cx="-8.7052107"
   inkscape:cy="36.132599"
   inkscape:window-x="1920"
   inkscape:window-y="18"
   inkscape:window-maximized="0"
   inkscape:current-layer="Layer_1"
   fit-margin-top="0"
   fit-margin-left="0"
   fit-margin-right="0"
   fit-margin-bottom="0" />





















<g
   id="g1102"
   transform="matrix(0.93962448,0,0,0.90722999,-140.14514,209.67548)"
   inkscape:export-xdpi="96"
   inkscape:export-ydpi="96"
   style="stroke-width:1.08308"><g
     id="g8"
     transform="matrix(0.91387948,0,0,0.95100006,149.15016,-231.11613)"
     style="fill:#000000;fill-opacity:1;stroke-width:1.1618"><g
       id="g6"
       style="fill:#000000;fill-opacity:1;stroke-width:1.1618"><path
         style="fill:#000000;fill-opacity:1;stroke-width:1.1618"
         d="m 26,17.716 c -4.566,0 -8.283,3.716 -8.283,8.283 0,4.567 3.717,8.283 8.283,8.283 4.568,0 8.283,-3.716 8.283,-8.283 0,-4.567 -3.715,-8.283 -8.283,-8.283 z m 0,12.195 c -2.16,0 -3.91,-1.751 -3.91,-3.912 0,-2.16 1.75,-3.912 3.91,-3.912 2.16,0 3.912,1.751 3.912,3.912 0,2.161 -1.752,3.912 -3.912,3.912 z"
         id="path2-6" /><path
         style="fill:#000000;fill-opacity:1;stroke-width:1.1618"
         d="M 26,0 C 11.641,0 0,11.641 0,26 0,40.359 11.641,52 26,52 40.359,52 52,40.359 52,26 52,11.641 40.359,0 26,0 Z m 0,37.965 C 19.404,37.965 14.035,32.598 14.035,26 14.035,19.402 19.404,14.035 26,14.035 32.598,14.035 37.965,19.402 37.965,26 37.964,32.597 32.597,37.965 26,37.965 Z"
         id="path4-3" /></g></g><circle
     style="fill:none;fill-opacity:1;stroke:#fdffff;stroke-width:0.434319;stroke-miterlimit:4;stroke-dasharray:none;stroke-opacity:1"
     id="path1061"
     cx="172.91103"
     cy="-206.39012"
     r="19.449499" /><g
     id="g1025"
     transform="matrix(1.0134398,0,0,1.0129305,41.314302,-52.692079)"
     style="stroke-width:1.069"><g
       id="color"
       transform="translate(97.583676,-182.99095)"
       style="stroke-width:1.07007;stroke-miterlimit:4;stroke-dasharray:none"><path
         fill="#b1cc33"
         d="M 52.6,12.6 A 28.14285,28.14285 0 0 1 12.8,52.4 Z"
         id="path2"
         style="stroke-width:1.07007;stroke-miterlimit:4;stroke-dasharray:none" /><path
         fill="#f4aa41"
         d="m 49.62,15.76 c 8.22,8.247 8.118,25.21 -0.115,33.45 -8.233,8.233 -24.75,8.335 -32.99,0.115 z"
         id="path4"
         style="stroke-width:1.07007;stroke-miterlimit:4;stroke-dasharray:none" /><path
         fill="#e27022"
         d="M 41.67,23.53 A 12.9,12.9 0 0 1 23.73,41.47 Z"
         id="path6"
         style="stroke-width:1.07007;stroke-miterlimit:4;stroke-dasharray:none" /></g><g
       id="line"
       transform="translate(98.163676,-182.99095)"
       style="stroke-width:1.17695;stroke-miterlimit:4;stroke-dasharray:none"><path
         fill="none"
         stroke="#000000"
         stroke-miterlimit="10"
         stroke-width="2.251"
         d="m 52.01,12.6 c 0.1676,0.1676 0.3326,0.3368 0.4951,0.5076 10.49,11.02 10.32,28.47 -0.4976,39.29 -10.99,10.99 -28.81,10.99 -39.8,0.0025 z"
         id="path9"
         style="stroke-width:1.17695;stroke-miterlimit:4;stroke-dasharray:none" /><path
         fill="none"
         stroke="#000000"
         stroke-miterlimit="10"
         stroke-width="2.251"
         d="m 49.11,15.44 c 8.167,8.299 9.065,22.67 -0.05274,32.99 -8.942,10.13 -25.08,8.628 -33.27,0.3566 z"
         id="path11"
         style="stroke-width:1.17695;stroke-miterlimit:4;stroke-dasharray:none" /><path
         fill="none"
         stroke="#000000"
         stroke-miterlimit="10"
         stroke-width="2.345"
         d="M 41.09,23.53 A 12.9,12.9 0 0 1 23.15,41.47 Z"
         id="path13"
         style="stroke-width:1.17695;stroke-miterlimit:4;stroke-dasharray:none" /><path
         fill="none"
         stroke="#000000"
         stroke-linecap="round"
         stroke-linejoin="round"
         stroke-width="2.251"
         d="m 31.79,51.06 c 3.369,0.5372 9.099,-0.9131 13.52,-5.585 3.186,-3.371 5.996,-9.423 5.673,-13.39"
         id="path15"
         style="stroke-width:1.17695;stroke-miterlimit:4;stroke-dasharray:none" /><circle
         cx="50.540001"
         cy="28.030001"
         r="1.173"
         id="circle17"
         style="stroke-width:1.17695;stroke-miterlimit:4;stroke-dasharray:none" /></g></g></g>
<g
   id="g52"
   transform="translate(-149.15016,231.11613)">
</g>
<g
   id="g54"
   transform="translate(-149.15016,231.11613)">
</g>
<g
   id="g56"
   transform="translate(-149.15016,231.11613)">
</g>
<g
   id="g58"
   transform="translate(-149.15016,231.11613)">
</g>
<g
   id="g60"
   transform="translate(-149.15016,231.11613)">
</g>
<g
   id="g62"
   transform="translate(-149.15016,231.11613)">
</g>
<g
   id="g64"
   transform="translate(-149.15016,231.11613)">
</g>
<g
   id="g66"
   transform="translate(-149.15016,231.11613)">
</g>
<g
   id="g68"
   transform="translate(-149.15016,231.11613)">
</g>
<g
   id="g70"
   transform="translate(-149.15016,231.11613)">
</g>
<g
   id="g72"
   transform="translate(-149.15016,231.11613)">
</g>
<g
   id="g74"
   transform="translate(-149.15016,231.11613)">
</g>
<g
   id="g76"
   transform="translate(-149.15016,231.11613)">
</g>
<g
   id="g78"
   transform="translate(-149.15016,231.11613)">
</g>
<g
   id="g80"
   transform="translate(-149.15016,231.11613)">
</g>
</svg>
